<mxfile host="app.diagrams.net" modified="2022-05-06T09:27:49.386Z" agent="5.0 (Windows NT 10.0; Win64; x64) AppleWebKit/537.36 (KHTML, like Gecko) Chrome/100.0.4896.127 Safari/537.36" etag="i0464ghnm6fcDUDd-gTe" version="15.6.6" type="github">
  <diagram id="C5RBs43oDa-KdzZeNtuy" name="Page-1">
    <mxGraphModel dx="1483" dy="827" grid="1" gridSize="10" guides="1" tooltips="1" connect="1" arrows="1" fold="1" page="1" pageScale="1" pageWidth="827" pageHeight="1169" math="0" shadow="0">
      <root>
        <mxCell id="WIyWlLk6GJQsqaUBKTNV-0" />
        <mxCell id="WIyWlLk6GJQsqaUBKTNV-1" parent="WIyWlLk6GJQsqaUBKTNV-0" />
        <mxCell id="WIyWlLk6GJQsqaUBKTNV-2" value="" style="rounded=0;html=1;jettySize=auto;orthogonalLoop=1;fontSize=11;endArrow=block;endFill=0;endSize=8;strokeWidth=1;shadow=0;labelBackgroundColor=none;edgeStyle=orthogonalEdgeStyle;strokeColor=default;fontColor=default;" parent="WIyWlLk6GJQsqaUBKTNV-1" source="WIyWlLk6GJQsqaUBKTNV-3" target="WIyWlLk6GJQsqaUBKTNV-6" edge="1">
          <mxGeometry relative="1" as="geometry" />
        </mxCell>
        <mxCell id="WIyWlLk6GJQsqaUBKTNV-3" value="IMPLEMENTANTION QUEUE" style="rounded=1;whiteSpace=wrap;html=1;fontSize=12;glass=0;strokeWidth=1;shadow=0;fillColor=default;strokeColor=default;fontColor=default;" parent="WIyWlLk6GJQsqaUBKTNV-1" vertex="1">
          <mxGeometry x="5" y="80" width="120" height="40" as="geometry" />
        </mxCell>
        <mxCell id="WIyWlLk6GJQsqaUBKTNV-4" value="Yes" style="rounded=0;html=1;jettySize=auto;orthogonalLoop=1;fontSize=11;endArrow=block;endFill=0;endSize=8;strokeWidth=1;shadow=0;labelBackgroundColor=none;edgeStyle=orthogonalEdgeStyle;strokeColor=default;fontColor=default;entryX=0;entryY=0.5;entryDx=0;entryDy=0;" parent="WIyWlLk6GJQsqaUBKTNV-1" source="WIyWlLk6GJQsqaUBKTNV-6" target="NVdkW3or86thczEKI8gm-2" edge="1">
          <mxGeometry y="20" relative="1" as="geometry">
            <mxPoint as="offset" />
            <mxPoint x="325" y="40" as="targetPoint" />
            <Array as="points">
              <mxPoint x="285" y="100" />
              <mxPoint x="285" y="100" />
            </Array>
          </mxGeometry>
        </mxCell>
        <mxCell id="WIyWlLk6GJQsqaUBKTNV-5" value="No" style="edgeStyle=orthogonalEdgeStyle;rounded=0;html=1;jettySize=auto;orthogonalLoop=1;fontSize=11;endArrow=block;endFill=0;endSize=8;strokeWidth=1;shadow=0;labelBackgroundColor=none;strokeColor=default;fontColor=default;" parent="WIyWlLk6GJQsqaUBKTNV-1" source="WIyWlLk6GJQsqaUBKTNV-6" target="WIyWlLk6GJQsqaUBKTNV-7" edge="1">
          <mxGeometry y="10" relative="1" as="geometry">
            <mxPoint as="offset" />
          </mxGeometry>
        </mxCell>
        <mxCell id="WIyWlLk6GJQsqaUBKTNV-6" value="Ticket is &lt;br&gt;Ready?" style="rhombus;whiteSpace=wrap;html=1;shadow=0;fontFamily=Helvetica;fontSize=12;align=center;strokeWidth=1;spacing=6;spacingTop=-4;fillColor=default;strokeColor=default;fontColor=default;" parent="WIyWlLk6GJQsqaUBKTNV-1" vertex="1">
          <mxGeometry x="165" y="60" width="100" height="80" as="geometry" />
        </mxCell>
        <mxCell id="WIyWlLk6GJQsqaUBKTNV-7" value="NEW" style="rounded=1;whiteSpace=wrap;html=1;fontSize=12;glass=0;strokeWidth=1;shadow=0;fillColor=default;strokeColor=default;fontColor=default;" parent="WIyWlLk6GJQsqaUBKTNV-1" vertex="1">
          <mxGeometry x="155" y="180" width="120" height="40" as="geometry" />
        </mxCell>
        <mxCell id="NVdkW3or86thczEKI8gm-14" style="edgeStyle=orthogonalEdgeStyle;rounded=0;orthogonalLoop=1;jettySize=auto;html=1;entryX=0;entryY=0.5;entryDx=0;entryDy=0;labelBackgroundColor=default;fontColor=default;endArrow=block;endFill=0;strokeColor=default;endSize=8;" edge="1" parent="WIyWlLk6GJQsqaUBKTNV-1" source="WIyWlLk6GJQsqaUBKTNV-11" target="NVdkW3or86thczEKI8gm-7">
          <mxGeometry relative="1" as="geometry" />
        </mxCell>
        <mxCell id="WIyWlLk6GJQsqaUBKTNV-11" value="IN DEVELOPMENT" style="rounded=1;whiteSpace=wrap;html=1;fontSize=12;glass=0;strokeWidth=1;shadow=0;fillColor=default;strokeColor=default;fontColor=default;" parent="WIyWlLk6GJQsqaUBKTNV-1" vertex="1">
          <mxGeometry x="445" y="80" width="120" height="40" as="geometry" />
        </mxCell>
        <mxCell id="NVdkW3or86thczEKI8gm-13" value="No" style="edgeStyle=orthogonalEdgeStyle;rounded=0;orthogonalLoop=1;jettySize=auto;html=1;entryX=0;entryY=0.5;entryDx=0;entryDy=0;labelBackgroundColor=default;fontColor=default;endArrow=block;endFill=0;strokeColor=default;endSize=8;" edge="1" parent="WIyWlLk6GJQsqaUBKTNV-1" source="NVdkW3or86thczEKI8gm-2" target="WIyWlLk6GJQsqaUBKTNV-11">
          <mxGeometry x="-0.25" y="20" relative="1" as="geometry">
            <mxPoint x="-1" as="offset" />
          </mxGeometry>
        </mxCell>
        <mxCell id="NVdkW3or86thczEKI8gm-2" value="Are there&lt;br&gt;any blockers?" style="rhombus;whiteSpace=wrap;html=1;shadow=0;fontFamily=Helvetica;fontSize=12;align=center;strokeWidth=1;spacing=6;spacingTop=-4;fillColor=default;strokeColor=default;fontColor=default;" vertex="1" parent="WIyWlLk6GJQsqaUBKTNV-1">
          <mxGeometry x="305" y="60" width="100" height="80" as="geometry" />
        </mxCell>
        <mxCell id="NVdkW3or86thczEKI8gm-4" value="Yes" style="edgeStyle=orthogonalEdgeStyle;rounded=0;html=1;jettySize=auto;orthogonalLoop=1;fontSize=11;endArrow=block;endFill=0;endSize=8;strokeWidth=1;shadow=0;labelBackgroundColor=none;strokeColor=default;fontColor=default;" edge="1" parent="WIyWlLk6GJQsqaUBKTNV-1" target="NVdkW3or86thczEKI8gm-5">
          <mxGeometry y="20" relative="1" as="geometry">
            <mxPoint as="offset" />
            <mxPoint x="355" y="140" as="sourcePoint" />
          </mxGeometry>
        </mxCell>
        <mxCell id="NVdkW3or86thczEKI8gm-5" value="HOLD/BLCOKED" style="rounded=1;whiteSpace=wrap;html=1;fontSize=12;glass=0;strokeWidth=1;shadow=0;fillColor=default;strokeColor=default;fontColor=default;" vertex="1" parent="WIyWlLk6GJQsqaUBKTNV-1">
          <mxGeometry x="295" y="180" width="120" height="40" as="geometry" />
        </mxCell>
        <mxCell id="NVdkW3or86thczEKI8gm-6" value="Yes" style="rounded=0;html=1;jettySize=auto;orthogonalLoop=1;fontSize=11;endArrow=block;endFill=0;endSize=8;strokeWidth=1;shadow=0;labelBackgroundColor=none;edgeStyle=orthogonalEdgeStyle;strokeColor=default;fontColor=default;entryX=0;entryY=0.5;entryDx=0;entryDy=0;fillColor=default;" edge="1" parent="WIyWlLk6GJQsqaUBKTNV-1" source="NVdkW3or86thczEKI8gm-7" target="NVdkW3or86thczEKI8gm-11">
          <mxGeometry y="20" relative="1" as="geometry">
            <mxPoint as="offset" />
            <mxPoint x="735" y="100" as="targetPoint" />
            <Array as="points" />
          </mxGeometry>
        </mxCell>
        <mxCell id="NVdkW3or86thczEKI8gm-15" value="No" style="edgeStyle=orthogonalEdgeStyle;rounded=0;orthogonalLoop=1;jettySize=auto;html=1;labelBackgroundColor=default;fontColor=default;endArrow=block;endFill=0;strokeColor=default;fillColor=default;endSize=8;" edge="1" parent="WIyWlLk6GJQsqaUBKTNV-1" source="NVdkW3or86thczEKI8gm-7">
          <mxGeometry y="15" relative="1" as="geometry">
            <mxPoint x="645" y="180" as="targetPoint" />
            <mxPoint as="offset" />
          </mxGeometry>
        </mxCell>
        <mxCell id="NVdkW3or86thczEKI8gm-7" value="Code is&lt;br&gt;done?" style="rhombus;whiteSpace=wrap;html=1;shadow=0;fontFamily=Helvetica;fontSize=12;align=center;strokeWidth=1;spacing=6;spacingTop=-4;fillColor=default;strokeColor=default;fontColor=default;" vertex="1" parent="WIyWlLk6GJQsqaUBKTNV-1">
          <mxGeometry x="595" y="60" width="100" height="80" as="geometry" />
        </mxCell>
        <mxCell id="NVdkW3or86thczEKI8gm-25" value="" style="edgeStyle=orthogonalEdgeStyle;rounded=0;orthogonalLoop=1;jettySize=auto;html=1;labelBackgroundColor=default;fontColor=default;endArrow=block;endFill=0;endSize=8;strokeColor=default;fillColor=default;" edge="1" parent="WIyWlLk6GJQsqaUBKTNV-1" source="NVdkW3or86thczEKI8gm-11" target="NVdkW3or86thczEKI8gm-24">
          <mxGeometry relative="1" as="geometry" />
        </mxCell>
        <mxCell id="NVdkW3or86thczEKI8gm-11" value="IN CODE REVIEW" style="rounded=1;whiteSpace=wrap;html=1;fontSize=12;glass=0;strokeWidth=1;shadow=0;fillColor=default;strokeColor=default;fontColor=default;" vertex="1" parent="WIyWlLk6GJQsqaUBKTNV-1">
          <mxGeometry x="740" y="80" width="120" height="40" as="geometry" />
        </mxCell>
        <mxCell id="NVdkW3or86thczEKI8gm-20" value="No" style="edgeStyle=orthogonalEdgeStyle;rounded=0;orthogonalLoop=1;jettySize=auto;html=1;entryX=0.5;entryY=1;entryDx=0;entryDy=0;labelBackgroundColor=default;fontColor=default;endArrow=block;endFill=0;strokeColor=default;fillColor=default;endSize=8;" edge="1" parent="WIyWlLk6GJQsqaUBKTNV-1" source="NVdkW3or86thczEKI8gm-19" target="WIyWlLk6GJQsqaUBKTNV-11">
          <mxGeometry x="0.1579" y="-15" relative="1" as="geometry">
            <mxPoint as="offset" />
          </mxGeometry>
        </mxCell>
        <mxCell id="NVdkW3or86thczEKI8gm-21" value="Yes" style="edgeStyle=orthogonalEdgeStyle;rounded=0;orthogonalLoop=1;jettySize=auto;html=1;entryX=0.5;entryY=1;entryDx=0;entryDy=0;labelBackgroundColor=default;fontColor=default;endArrow=block;endFill=0;strokeColor=default;fillColor=default;endSize=8;" edge="1" parent="WIyWlLk6GJQsqaUBKTNV-1" source="NVdkW3or86thczEKI8gm-19" target="NVdkW3or86thczEKI8gm-5">
          <mxGeometry y="-20" relative="1" as="geometry">
            <Array as="points">
              <mxPoint x="645" y="280" />
              <mxPoint x="355" y="280" />
            </Array>
            <mxPoint as="offset" />
          </mxGeometry>
        </mxCell>
        <mxCell id="NVdkW3or86thczEKI8gm-19" value="Are there&lt;br&gt;any blockers?" style="rhombus;whiteSpace=wrap;html=1;shadow=0;fontFamily=Helvetica;fontSize=12;align=center;strokeWidth=1;spacing=6;spacingTop=-4;fillColor=default;strokeColor=default;fontColor=default;" vertex="1" parent="WIyWlLk6GJQsqaUBKTNV-1">
          <mxGeometry x="595" y="180" width="100" height="80" as="geometry" />
        </mxCell>
        <mxCell id="NVdkW3or86thczEKI8gm-23" value="No" style="edgeStyle=orthogonalEdgeStyle;rounded=0;orthogonalLoop=1;jettySize=auto;html=1;labelBackgroundColor=default;fontColor=default;endArrow=block;endFill=0;strokeColor=default;fillColor=default;endSize=8;entryX=0.5;entryY=0;entryDx=0;entryDy=0;exitX=0.5;exitY=0;exitDx=0;exitDy=0;" edge="1" parent="WIyWlLk6GJQsqaUBKTNV-1" source="NVdkW3or86thczEKI8gm-24" target="WIyWlLk6GJQsqaUBKTNV-3">
          <mxGeometry x="-0.959" y="-20" relative="1" as="geometry">
            <mxPoint x="940" y="180" as="targetPoint" />
            <mxPoint as="offset" />
            <Array as="points">
              <mxPoint x="940" y="20" />
              <mxPoint x="65" y="20" />
            </Array>
          </mxGeometry>
        </mxCell>
        <mxCell id="NVdkW3or86thczEKI8gm-28" value="Yes" style="edgeStyle=orthogonalEdgeStyle;rounded=0;orthogonalLoop=1;jettySize=auto;html=1;labelBackgroundColor=default;fontColor=default;endArrow=block;endFill=0;endSize=8;strokeColor=default;fillColor=default;" edge="1" parent="WIyWlLk6GJQsqaUBKTNV-1" source="NVdkW3or86thczEKI8gm-24" target="NVdkW3or86thczEKI8gm-26">
          <mxGeometry x="0.2" y="20" relative="1" as="geometry">
            <mxPoint as="offset" />
          </mxGeometry>
        </mxCell>
        <mxCell id="NVdkW3or86thczEKI8gm-24" value="Code is&lt;br&gt;done?" style="rhombus;whiteSpace=wrap;html=1;shadow=0;fontFamily=Helvetica;fontSize=12;align=center;strokeWidth=1;spacing=6;spacingTop=-4;fillColor=default;strokeColor=default;fontColor=default;" vertex="1" parent="WIyWlLk6GJQsqaUBKTNV-1">
          <mxGeometry x="890" y="60" width="100" height="80" as="geometry" />
        </mxCell>
        <mxCell id="NVdkW3or86thczEKI8gm-30" value="" style="edgeStyle=orthogonalEdgeStyle;rounded=0;orthogonalLoop=1;jettySize=auto;html=1;labelBackgroundColor=default;fontColor=default;endArrow=block;endFill=0;endSize=8;strokeColor=default;fillColor=default;" edge="1" parent="WIyWlLk6GJQsqaUBKTNV-1" source="NVdkW3or86thczEKI8gm-26" target="NVdkW3or86thczEKI8gm-29">
          <mxGeometry relative="1" as="geometry" />
        </mxCell>
        <mxCell id="NVdkW3or86thczEKI8gm-26" value="BUILD FOR TEST" style="rounded=1;whiteSpace=wrap;html=1;fontSize=12;glass=0;strokeWidth=1;shadow=0;fillColor=default;strokeColor=default;fontColor=default;" vertex="1" parent="WIyWlLk6GJQsqaUBKTNV-1">
          <mxGeometry x="1040" y="80" width="120" height="40" as="geometry" />
        </mxCell>
        <mxCell id="NVdkW3or86thczEKI8gm-29" value="TEST QUEUE" style="rounded=1;whiteSpace=wrap;html=1;fontSize=12;glass=0;strokeWidth=1;shadow=0;fillColor=default;strokeColor=default;fontColor=default;" vertex="1" parent="WIyWlLk6GJQsqaUBKTNV-1">
          <mxGeometry x="1040" y="160" width="120" height="40" as="geometry" />
        </mxCell>
      </root>
    </mxGraphModel>
  </diagram>
</mxfile>
